<svg xmlns="http://www.w3.org/2000/svg" height="804" xmlns:ev="http://www.w3.org/2001/xml-events" xmlns:xlink="http://www.w3.org/1999/xlink" width="1133" viewBox="0 0 1133 804"><style type="text/css"><![CDATA[
.st1 {fill:#303030;font-family:Arial;font-size:10pt}
.st2 {fill:#303030;font-family:Arial;font-size:18pt}
]]></style><defs/><g id="page1" transform="translate(5,5)"><rect height="794" fill="#ffffff" stroke="#808080" x="0" y="0" width="1123"/><g transform="translate(466.99,344)"><path fill="#bc6527" stroke-width="0.25" stroke="#bc6527" id="shape1" transform="translate(-0,10.53)" d="M0,1.5L3.1,0L3.1,36.9L0,35.5L0,1.5z"/><path fill="#f58536" stroke-width="0.25" stroke="#f58536" id="shape2" transform="translate(3.06,10.53)" d="M0,0L4.4,1.3L4.4,35.8L0,36.9L0,0z"/><path fill="#bc6527" stroke-width="0.25" stroke="#bc6527" id="shape3" transform="translate(6.5,6.48)" d="M0,2.3L4.6,0L4.6,45L0,42.6L0,2.3z"/><path fill="#f58536" stroke-width="0.25" stroke="#f58536" id="shape4" transform="translate(11.11,6.48)" d="M0,0L7.2,2.3L7.2,42.7L0,45L0,0z"/><path fill="#bc6527" stroke-width="0.25" stroke="#bc6527" id="shape5" transform="translate(16.77,0)" d="M0,3.6L7.2,0L7.2,58L0,54.3L0,3.6z"/><path fill="#f58536" stroke-width="0.25" stroke="#f58536" id="shape6" transform="translate(23.96,0)" d="M0,0L24.1,12.1L24.1,46L0,58L0,0z"/><path fill="#ffffff" stroke-width="0.25" stroke="#ffffff" id="shape7" transform="translate(31.21,13.77)" d="M0,0L0,30.5L13.7,26.3L13.7,4.3L0,0z"/><path fill="#99511e" stroke-width="0.25" stroke="#99511e" id="shape8" transform="translate(31.21,13.77)" d="M0,0L0,2.2L10.1,4.7L13.7,4.3L0,0z"/><path fill="#bc6527" stroke-width="0.25" stroke="#bc6527" id="shape9" transform="translate(41.3,18.09)" d="M0,.4L0,21.5L3.6,22L3.6,0L0,.4z"/><path fill="#f8ae90" stroke-width="0.25" stroke="#f8ae90" id="shape10" transform="translate(31.21,39.55)" d="M10.1,0L0,2.6L0,4.7L13.7,.5L10.1,0z"/><path fill="#bc6527" stroke-width="0.25" stroke="#bc6527" id="shape11" transform="translate(31.21,19.69)" d="M0,17.9L0,.6L4.2,0L4.2,18.5L0,17.9z"/><path fill="#f58536" stroke-width="0.25" stroke="#f58536" id="shape12" transform="translate(35.44,19.69)" d="M0,0L7.7,9.2L0,18.5L0,0z"/><text class="st1"><tspan x="1.5" y="72.5">Lambda</tspan><tspan x="-18.5" y="88.5">process-replay</tspan></text></g><g transform="translate(652,341.5)"><path fill="#1b4a78" stroke-width="0.25" stroke="#1b4a78" id="shape13" transform="translate(3.52,5.64)" d="M40.5,10.7L39,10.9L39,28L40.5,28.1L39,31L26.8,37.3L12.3,36.5L1.7,33.4L0,31L.9,5.1L21.7,0L39.1,7.4L40.2,9.5L40.5,10.7z"/><path fill="#1b4a78" stroke-width="0.25" stroke="#1b4a78" id="shape14" transform="translate(0,5.12)" d="M5,0L0,6L0,11.2L1.4,11.5L1.4,12.7L0,13.4L0,18.8L1.4,18.8L1.4,21.1L0,21.1L0,26.5L1.4,27.2L1.4,28.6L0,28.7L0,34L5,39.8L5,0z"/><path fill="#225a91" stroke-width="0.25" stroke="#225a91" id="shape15" transform="translate(5.03,0)" d="M0,5.1L10,0L10,9.5L0,12.7L0,5.1z"/><path fill="#225a91" stroke-width="0.25" stroke="#225a91" id="shape16" transform="translate(5.03,13.58)" d="M0,2.4L0,10L10,9.5L10,0L0,2.4z"/><path fill="#225a91" stroke-width="0.25" stroke="#225a91" id="shape17" transform="translate(5.03,26.74)" d="M10,.3L10,9.7L0,7.5L0,0L10,.3z"/><path fill="#225a91" stroke-width="0.25" stroke="#225a91" id="shape18" transform="translate(5.03,37.47)" d="M10,3.1L10,12.5L0,7.4L0,0L10,3.1z"/><path fill="#2e73b7" stroke-width="0.25" stroke="#2e73b7" id="shape19" transform="translate(15.01,0)" d="M0,0L14,0L14,9.5L0,9.5L0,0z"/><path fill="#2e73b7" stroke-width="0.25" stroke="#2e73b7" id="shape20" transform="translate(15.01,13.58)" d="M0,0L14,0L14,9.5L0,9.5L0,0z"/><path fill="#2e73b7" stroke-width="0.25" stroke="#2e73b7" id="shape21" transform="translate(15.01,27.09)" d="M0,0L14,0L14,9.4L0,9.4L0,0z"/><path fill="#2e73b7" stroke-width="0.25" stroke="#2e73b7" id="shape22" transform="translate(15.01,40.6)" d="M0,0L14,0L14,9.4L0,9.4L0,0z"/><path fill="#5294cf" stroke-width="0.25" stroke="#5294cf" id="shape23" transform="matrix(-1,0,0,1,39,0)" d="M0,5.1L10,0L10,9.5L0,12.7L0,5.1z"/><path fill="#5294cf" stroke-width="0.25" stroke="#5294cf" id="shape24" transform="matrix(-1,0,0,1,39,13.6)" d="M0,2.4L0,10L10,9.5L10,0L0,2.4z"/><path fill="#5294cf" stroke-width="0.25" stroke="#5294cf" id="shape25" transform="matrix(-1,0,0,1,39,26.7)" d="M10,.3L10,9.7L0,7.5L0,0L10,.3z"/><path fill="#5294cf" stroke-width="0.25" stroke="#5294cf" id="shape26" transform="matrix(-1,0,0,1,39,37.5)" d="M10,3.1L10,12.5L0,7.4L0,0L10,3.1z"/><path fill="#2e73b7" stroke-width="0.25" stroke="#2e73b7" id="shape27" transform="translate(38.97,5.08)" d="M0,0L5,6L5,11.2L0,7.6L0,0z"/><path fill="#2e73b7" stroke-width="0.25" stroke="#2e73b7" id="shape28" transform="translate(38.97,15.95)" d="M0,0L5,2.6L5,7.9L0,7.6L0,0z"/><path fill="#2e73b7" stroke-width="0.25" stroke="#2e73b7" id="shape29" transform="translate(38.97,26.18)" d="M0,.6L5,0L5,5.4L0,8L0,.6z"/><path fill="#2e73b7" stroke-width="0.25" stroke="#2e73b7" id="shape30" transform="translate(38.97,33.77)" d="M0,3.7L5,0L5,5.3L0,11.1L0,3.7z"/><text class="st1"><tspan x="-11" y="64.5">DynamoDB</tspan><tspan x="-16" y="80.5">turbo-carnival</tspan></text></g><g transform="translate(652,489)"><path fill="#1b4a78" stroke-width="0.25" stroke="#1b4a78" id="shape31" transform="translate(3.52,5.64)" d="M40.5,10.7L39,10.9L39,28L40.5,28.1L39,31L26.8,37.3L12.3,36.5L1.7,33.4L0,31L.9,5.1L21.7,0L39.1,7.4L40.2,9.5L40.5,10.7z"/><path fill="#1b4a78" stroke-width="0.25" stroke="#1b4a78" id="shape32" transform="translate(0,5.12)" d="M5,0L0,6L0,11.2L1.4,11.5L1.4,12.7L0,13.4L0,18.8L1.4,18.8L1.4,21.1L0,21.1L0,26.5L1.4,27.2L1.4,28.6L0,28.7L0,34L5,39.8L5,0z"/><path fill="#225a91" stroke-width="0.25" stroke="#225a91" id="shape33" transform="translate(5.03,0)" d="M0,5.1L10,0L10,9.5L0,12.7L0,5.1z"/><path fill="#225a91" stroke-width="0.25" stroke="#225a91" id="shape34" transform="translate(5.03,13.58)" d="M0,2.4L0,10L10,9.5L10,0L0,2.4z"/><path fill="#225a91" stroke-width="0.25" stroke="#225a91" id="shape35" transform="translate(5.03,26.74)" d="M10,.3L10,9.7L0,7.5L0,0L10,.3z"/><path fill="#225a91" stroke-width="0.25" stroke="#225a91" id="shape36" transform="translate(5.03,37.47)" d="M10,3.1L10,12.5L0,7.4L0,0L10,3.1z"/><path fill="#2e73b7" stroke-width="0.25" stroke="#2e73b7" id="shape37" transform="translate(15.01,0)" d="M0,0L14,0L14,9.5L0,9.5L0,0z"/><path fill="#2e73b7" stroke-width="0.25" stroke="#2e73b7" id="shape38" transform="translate(15.01,13.58)" d="M0,0L14,0L14,9.5L0,9.5L0,0z"/><path fill="#2e73b7" stroke-width="0.25" stroke="#2e73b7" id="shape39" transform="translate(15.01,27.09)" d="M0,0L14,0L14,9.4L0,9.4L0,0z"/><path fill="#2e73b7" stroke-width="0.25" stroke="#2e73b7" id="shape40" transform="translate(15.01,40.6)" d="M0,0L14,0L14,9.4L0,9.4L0,0z"/><path fill="#5294cf" stroke-width="0.25" stroke="#5294cf" id="shape41" transform="matrix(-1,0,0,1,39,0)" d="M0,5.1L10,0L10,9.5L0,12.7L0,5.1z"/><path fill="#5294cf" stroke-width="0.25" stroke="#5294cf" id="shape42" transform="matrix(-1,0,0,1,39,13.6)" d="M0,2.4L0,10L10,9.5L10,0L0,2.4z"/><path fill="#5294cf" stroke-width="0.25" stroke="#5294cf" id="shape43" transform="matrix(-1,0,0,1,39,26.7)" d="M10,.3L10,9.7L0,7.5L0,0L10,.3z"/><path fill="#5294cf" stroke-width="0.25" stroke="#5294cf" id="shape44" transform="matrix(-1,0,0,1,39,37.5)" d="M10,3.1L10,12.5L0,7.4L0,0L10,3.1z"/><path fill="#2e73b7" stroke-width="0.25" stroke="#2e73b7" id="shape45" transform="translate(38.97,5.08)" d="M0,0L5,6L5,11.2L0,7.6L0,0z"/><path fill="#2e73b7" stroke-width="0.25" stroke="#2e73b7" id="shape46" transform="translate(38.97,15.95)" d="M0,0L5,2.6L5,7.9L0,7.6L0,0z"/><path fill="#2e73b7" stroke-width="0.25" stroke="#2e73b7" id="shape47" transform="translate(38.97,26.18)" d="M0,.6L5,0L5,5.4L0,8L0,.6z"/><path fill="#2e73b7" stroke-width="0.25" stroke="#2e73b7" id="shape48" transform="translate(38.97,33.77)" d="M0,3.7L5,0L5,5.3L0,11.1L0,3.7z"/><text class="st1"><tspan x="-11" y="64.5">DynamoDB</tspan><tspan x="-39" y="80.5">turbo-carnival-players</tspan></text></g><g transform="translate(310.99,340)"><path fill="#58772d" stroke="#58772d" id="shape49" transform="translate(12.53,32.72)" d="M11.1,0L0,0L0,27.5L11.1,33.3L11.1,0z"/><path fill="#759c3e" stroke="#759c3e" id="shape50" transform="translate(23.66,32.72)" d="M0,0L8.7,0L8.7,29L0,33.3L0,0z"/><path fill="#759c3e" stroke="#759c3e" id="shape51" transform="translate(4.22,40.66)" d="M0,1.6L0,15.5L15.3,11.5L15.3,0L0,1.6z"/><path fill="#58772d" stroke="#58772d" id="shape52" transform="translate(-0,41.33)" d="M4.2,1L0,0L0,12.5L4.2,14.8L4.2,1z"/><path fill="#a6bb92" stroke="#a6bb92" id="shape53" transform="translate(0,39.88)" d="M0,1.5L14.7,0L19.6,.8L4.2,2.4L0,1.5z"/><path fill="#58772d" stroke="#83a45b" id="shape54" transform="translate(15.79,-0)" d="M7.9,32.7L0,32.7L0,4.1L7.9,0L7.9,32.7z"/><path fill="#759c3e" stroke="#83a45b" id="shape55" transform="translate(23.66,-0)" d="M0,32.7L11.9,32.7L11.9,5.6L0,0L0,32.7z"/><path fill="#58772d" stroke="#58772d" id="shape56" transform="translate(28.67,9.73)" d="M0,4.2L15.1,0L15.1,13.9L0,15.3L0,4.2z"/><path fill="#759c3e" stroke="#759c3e" id="shape57" transform="translate(43.78,9.73)" d="M0,0L4.2,2L4.2,14.5L0,13.9L0,0z"/><path fill="#4b6626" stroke="#4b6626" id="shape58" transform="translate(28.67,23.6)" d="M19.3,.7L4.7,2.1L0,1.4L15.1,0L19.3,.7z"/><text class="st1"><tspan x="-27" y="80.5">Elastic Beanstalk</tspan><tspan x="-14" y="96.5">turbo-carnival</tspan></text></g><g transform="translate(181.99,350)"><path fill="#953429" stroke-width="0.25" stroke="#953429" id="shape59" transform="translate(0.02,2.26)" d="M0,5.1C0,4,0,2.9,0,2.9C0,2.9,15.2,0,23,0C31.8,0,46,2.9,46,2.9C46,2.9,46,4.2,46,5.1C46,7.9,35.7,10.2,23,10.2C10.3,10.2,0,7.9,0,5.1z"/><path fill="#953429" stroke-width="0.25" stroke="#953429" id="shape60" transform="translate(0.02,9.5)" d="M0,2L0,0L22.7,20.3L46,0L46,2L38.3,33.2C38.3,33.2,35.6,36.5,23,36.5C10.4,36.5,7.7,33.2,7.7,33.2L0,2z"/><path fill="#e15343" stroke-width="0.25" stroke="#e15343" id="shape61" transform="translate(0.03,-0)" d="M0,5.1C0,2.3,10.3,0,23,0C35.7,0,45.9,2.3,45.9,5.1C45.9,7.9,35.7,10.2,23,10.2C10.3,10.2,0,7.9,0,5.1z"/><path fill="#e15343" stroke-width="0.25" stroke="#e15343" id="shape62" transform="translate(0.02,9.5)" d="M0,0C10,6.3,39.9,5.3,46,0L38.3,31.2C38.3,31.2,35.6,34.5,23,34.5C10.4,34.5,7.7,31.2,7.7,31.2L0,0z"/><text class="st1"><tspan x="15.5" y="60.5">S3</tspan><tspan x="-40.5" y="76.5">turbo-carnival (.replay)</tspan></text></g><g id="shape63" transform="translate(358.99,373)"><path fill="none" stroke="#6d6d6d" d="M0,0L103.6,0"/><path fill="#6d6d6d" stroke-width="1" stroke-linecap="round" stroke="#6d6d6d" d="M108,0L102.8,-3C103.3,-2.1,103.6,-1.1,103.6,0C103.6,1.1,103.3,2.1,102.8,3L108,0"/><rect height="16" fill="#ffffff" x="16.6" y="-8" width="7.2"/><text class="st1"><tspan x="16.5" y="4">3</tspan></text></g><g transform="translate(651,196)"><path fill="#953429" stroke-width="0.25" stroke="#953429" id="shape64" transform="translate(0.02,2.26)" d="M0,5.1C0,4,0,2.9,0,2.9C0,2.9,15.2,0,23,0C31.8,0,46,2.9,46,2.9C46,2.9,46,4.2,46,5.1C46,7.9,35.7,10.2,23,10.2C10.3,10.2,0,7.9,0,5.1z"/><path fill="#953429" stroke-width="0.25" stroke="#953429" id="shape65" transform="translate(0.02,9.5)" d="M0,2L0,0L22.7,20.3L46,0L46,2L38.3,33.2C38.3,33.2,35.6,36.5,23,36.5C10.4,36.5,7.7,33.2,7.7,33.2L0,2z"/><path fill="#e15343" stroke-width="0.25" stroke="#e15343" id="shape66" transform="translate(0.03,-0)" d="M0,5.1C0,2.3,10.3,0,23,0C35.7,0,45.9,2.3,45.9,5.1C45.9,7.9,35.7,10.2,23,10.2C10.3,10.2,0,7.9,0,5.1z"/><path fill="#e15343" stroke-width="0.25" stroke="#e15343" id="shape67" transform="translate(0.02,9.5)" d="M0,0C10,6.3,39.9,5.3,46,0L38.3,31.2C38.3,31.2,35.6,34.5,23,34.5C10.4,34.5,7.7,31.2,7.7,31.2L0,0z"/><text class="st1"><tspan x="15.5" y="60.5">S3</tspan><tspan x="-32.5" y="76.5">turbo-carnival (.csv)</tspan></text></g><g id="shape68" transform="translate(310.99,373)"><path fill="none" stroke="#6d6d6d" d="M0,0L-78.6,0"/><path fill="#6d6d6d" stroke-width="1" stroke-linecap="round" stroke="#6d6d6d" d="M-83,0L-77.8,3C-78.3,2.1,-78.6,1.1,-78.6,0C-78.6,-1.1,-78.3,-2.1,-77.8,-3L-83,0"/><rect height="16" fill="#ffffff" x="-23.4" y="-8" width="7.2"/><text class="st1"><tspan x="-23.5" y="4">2</tspan></text></g><g transform="translate(258,136)"><path fill="#000000" fill-opacity="0.08" d="M25.4,2L131.4,2C132,2,132.5,2.5,132.5,3.1L132.5,77.3C132.5,77.9,132,78.4,131.4,78.4L25.4,78.4C24.8,78.4,24.3,77.9,24.3,77.3L24.3,3.1C24.3,2.5,24.8,2,25.4,2zM153.7,103.9L132.6,80.5C131.9,79.6,130.8,78.4,130.1,78.4L26.5,78.4C25.9,78.4,24.7,79.4,23.8,80.5L2.3,103.9C2.2,104.1,2.1,104.4,2,104.8C2,104.8,2,104.8,2,104.8L2,106.2C2,107.2,2.8,108,3.8,108L152.2,108C153.2,108,154,107.2,154,106.2L154,104.6C153.9,104.4,153.8,104.1,153.7,103.9z"/><path fill="#ffffff" stroke="#000000" id="shape69" transform="translate(0,102.56)" d="M152,0L152,1.6C152,2.6,151.2,3.4,150.2,3.4L1.8,3.4C.8,3.4,0,2.6,0,1.6L0,0L152,0z"/><path fill="#ffffff" stroke="#000000" id="shape70" transform="translate(0,76.39)" d="M24.5,0L128.1,0C128.8,0,129.9,1.2,130.6,2.2L151.7,25.5C152.6,26.8,151.7,27.7,149.6,27.7L2.6,27.7C0,27.7,-0.4,26.7,.3,25.5L21.8,2.2C22.7,1.1,23.9,0,24.5,0z"/><path fill="#ffffff" stroke="#000000" id="shape71" transform="translate(22.34,0)" d="M1.1,0L107.1,0C107.6,0,108.1,.5,108.1,1.1L108.1,75.3C108.1,75.9,107.6,76.4,107.1,76.4L1.1,76.4C.5,76.4,0,75.9,0,75.3L0,1.1C0,.5,.5,0,1.1,0z"/><path fill="#ffffff" stroke="#000000" id="shape72" transform="translate(26.65,4.75)" d="M0,0L99.5,0L99.5,65.9L0,65.9L0,0z"/><path fill="#ffffff" stroke="#000000" id="shape73" transform="translate(12.96,79.89)" d="M12.9,0L114,0L126.9,15.5L0,15.5L12.9,0z"/><path fill="none" stroke="#000000" id="shape74" transform="translate(21.42,85.16)" d="M0,0L110.1,0"/><path fill="none" stroke="#000000" id="shape75" transform="translate(17.57,90.14)" d="M0,0L117.5,0"/><path fill="#ffffff" stroke="#000000" id="shape76" transform="translate(63.24,96.67)" d="M3.1,0L23.1,0L26.4,6L0,6L3.1,0z"/><g transform="translate(22.84,79.65)"><path fill="none" stroke="#000000" id="shape77" transform="translate(0,0.27)" d="M10.9,0L0,15.5"/><path fill="none" stroke="#000000" id="shape78" transform="translate(9.33,0.41)" d="M9.1,0L0,15.4"/><path fill="none" stroke="#000000" id="shape79" transform="translate(19.54,0.41)" d="M6.9,0L0,15.4"/><path fill="none" stroke="#000000" id="shape80" transform="translate(29.24,0.16)" d="M0,15.6L5.5,0"/><path fill="none" stroke="#000000" id="shape81" transform="translate(38.71,0.32)" d="M0,15.4L3.9,0"/><path fill="none" stroke="#000000" id="shape82" transform="translate(47.54,-0)" d="M0,15.7L2.2,0"/></g><g transform="matrix(-1,0,0,1,129.5,79.6)"><path fill="none" stroke="#000000" id="shape83" transform="translate(0,0.27)" d="M10.9,0L0,15.5"/><path fill="none" stroke="#000000" id="shape84" transform="translate(9.33,0.41)" d="M9.1,0L0,15.4"/><path fill="none" stroke="#000000" id="shape85" transform="translate(19.54,0.41)" d="M6.9,0L0,15.4"/><path fill="none" stroke="#000000" id="shape86" transform="translate(29.24,0.16)" d="M0,15.6L5.5,0"/><path fill="none" stroke="#000000" id="shape87" transform="translate(38.71,0.32)" d="M0,15.4L3.9,0"/><path fill="none" stroke="#000000" id="shape88" transform="translate(47.54,-0)" d="M0,15.7L2.2,0"/></g></g><g id="shape89" transform="translate(310.99,64)"><text class="st2"><tspan x="71" y="28">Saving a Replay</tspan></text></g><g id="shape90" transform="translate(334,242)"><path fill="none" stroke="#6d6d6d" d="M0,0L0,66L.9,93.6"/><path fill="#6d6d6d" stroke-width="1" stroke-linecap="round" stroke="#6d6d6d" d="M1,98L3.8,92.7C3,93.3,1.9,93.6,.9,93.6C-0.2,93.6,-1.3,93.4,-2.2,92.9L1,98"/><rect height="16" fill="#ffffff" x="-3.4" y="12" width="7.2"/><text class="st1"><tspan x="-3.5" y="24">1</tspan></text></g><g id="shape91" transform="translate(514.99,373)"><path fill="none" stroke="#6d6d6d" d="M0,0L133.1,-150.7"/><path fill="#6d6d6d" stroke-width="1" stroke-linecap="round" stroke="#6d6d6d" d="M136,-154L130.3,-152.1C131.3,-151.9,132.3,-151.4,133.1,-150.7C133.9,-150,134.5,-149.1,134.8,-148.1L136,-154"/><rect height="16" fill="#ffffff" x="9.8" y="-23" width="7.2"/><text class="st1"><tspan x="9.7" y="-11">4</tspan></text></g><g id="shape92" transform="translate(514.99,373)"><path fill="none" stroke="#6d6d6d" d="M0,0L132.6,-6.3"/><path fill="#6d6d6d" stroke-width="1" stroke-linecap="round" stroke="#6d6d6d" d="M137,-6.5L131.7,-9.3C132.2,-8.4,132.6,-7.4,132.6,-6.3C132.7,-5.2,132.4,-4.2,132,-3.3L137,-6.5"/><rect height="16" fill="#ffffff" x="16.6" y="-8.9" width="7.2"/><text class="st1"><tspan x="16.5" y="3.1">4</tspan></text></g><g id="shape93" transform="translate(514.99,373)"><path fill="none" stroke="#6d6d6d" d="M0,0L134,137.9"/><path fill="#6d6d6d" stroke-width="1" stroke-linecap="round" stroke="#6d6d6d" d="M137,141L135.5,135.2C135.3,136.2,134.7,137.1,134,137.9C133.2,138.6,132.2,139.1,131.2,139.4L137,141"/><rect height="16" fill="#ffffff" x="10.5" y="6.3" width="7.2"/><text class="st1"><tspan x="10.4" y="18.3">4</tspan></text></g></g></svg>