<svg xmlns="http://www.w3.org/2000/svg" height="804" xmlns:ev="http://www.w3.org/2001/xml-events" xmlns:xlink="http://www.w3.org/1999/xlink" width="1133" viewBox="0 0 1133 804"><style type="text/css"><![CDATA[
.st1 {fill:#303030;font-family:Arial;font-size:10pt}
.st2 {fill:#303030;font-family:Arial;font-size:18pt}
]]></style><defs/><g id="page1" transform="translate(5,5)"><rect height="794" fill="#ffffff" stroke="#808080" x="0" y="0" width="1123"/><g transform="translate(652,341.5)"><path fill="#1b4a78" stroke-width="0.25" stroke="#1b4a78" id="shape1" transform="translate(3.52,5.64)" d="M40.5,10.7L39,10.9L39,28L40.5,28.1L39,31L26.8,37.3L12.3,36.5L1.7,33.4L0,31L.9,5.1L21.7,0L39.1,7.4L40.2,9.5L40.5,10.7z"/><path fill="#1b4a78" stroke-width="0.25" stroke="#1b4a78" id="shape2" transform="translate(0,5.12)" d="M5,0L0,6L0,11.2L1.4,11.5L1.4,12.7L0,13.4L0,18.8L1.4,18.8L1.4,21.1L0,21.1L0,26.5L1.4,27.2L1.4,28.6L0,28.7L0,34L5,39.8L5,0z"/><path fill="#225a91" stroke-width="0.25" stroke="#225a91" id="shape3" transform="translate(5.03,0)" d="M0,5.1L10,0L10,9.5L0,12.7L0,5.1z"/><path fill="#225a91" stroke-width="0.25" stroke="#225a91" id="shape4" transform="translate(5.03,13.58)" d="M0,2.4L0,10L10,9.5L10,0L0,2.4z"/><path fill="#225a91" stroke-width="0.25" stroke="#225a91" id="shape5" transform="translate(5.03,26.74)" d="M10,.3L10,9.7L0,7.5L0,0L10,.3z"/><path fill="#225a91" stroke-width="0.25" stroke="#225a91" id="shape6" transform="translate(5.03,37.47)" d="M10,3.1L10,12.5L0,7.4L0,0L10,3.1z"/><path fill="#2e73b7" stroke-width="0.25" stroke="#2e73b7" id="shape7" transform="translate(15.01,0)" d="M0,0L14,0L14,9.5L0,9.5L0,0z"/><path fill="#2e73b7" stroke-width="0.25" stroke="#2e73b7" id="shape8" transform="translate(15.01,13.58)" d="M0,0L14,0L14,9.5L0,9.5L0,0z"/><path fill="#2e73b7" stroke-width="0.25" stroke="#2e73b7" id="shape9" transform="translate(15.01,27.09)" d="M0,0L14,0L14,9.4L0,9.4L0,0z"/><path fill="#2e73b7" stroke-width="0.25" stroke="#2e73b7" id="shape10" transform="translate(15.01,40.6)" d="M0,0L14,0L14,9.4L0,9.4L0,0z"/><path fill="#5294cf" stroke-width="0.25" stroke="#5294cf" id="shape11" transform="matrix(-1,0,0,1,39,0)" d="M0,5.1L10,0L10,9.5L0,12.7L0,5.1z"/><path fill="#5294cf" stroke-width="0.25" stroke="#5294cf" id="shape12" transform="matrix(-1,0,0,1,39,13.6)" d="M0,2.4L0,10L10,9.5L10,0L0,2.4z"/><path fill="#5294cf" stroke-width="0.25" stroke="#5294cf" id="shape13" transform="matrix(-1,0,0,1,39,26.7)" d="M10,.3L10,9.7L0,7.5L0,0L10,.3z"/><path fill="#5294cf" stroke-width="0.25" stroke="#5294cf" id="shape14" transform="matrix(-1,0,0,1,39,37.5)" d="M10,3.1L10,12.5L0,7.4L0,0L10,3.1z"/><path fill="#2e73b7" stroke-width="0.25" stroke="#2e73b7" id="shape15" transform="translate(38.97,5.08)" d="M0,0L5,6L5,11.2L0,7.6L0,0z"/><path fill="#2e73b7" stroke-width="0.25" stroke="#2e73b7" id="shape16" transform="translate(38.97,15.95)" d="M0,0L5,2.6L5,7.9L0,7.6L0,0z"/><path fill="#2e73b7" stroke-width="0.25" stroke="#2e73b7" id="shape17" transform="translate(38.97,26.18)" d="M0,.6L5,0L5,5.4L0,8L0,.6z"/><path fill="#2e73b7" stroke-width="0.25" stroke="#2e73b7" id="shape18" transform="translate(38.97,33.77)" d="M0,3.7L5,0L5,5.3L0,11.1L0,3.7z"/><text class="st1"><tspan x="-11" y="64.5">DynamoDB</tspan><tspan x="-16" y="80.5">turbo-carnival</tspan></text></g><g transform="translate(652,489)"><path fill="#1b4a78" stroke-width="0.25" stroke="#1b4a78" id="shape19" transform="translate(3.52,5.64)" d="M40.5,10.7L39,10.9L39,28L40.5,28.1L39,31L26.8,37.3L12.3,36.5L1.7,33.4L0,31L.9,5.1L21.7,0L39.1,7.4L40.2,9.5L40.5,10.7z"/><path fill="#1b4a78" stroke-width="0.25" stroke="#1b4a78" id="shape20" transform="translate(0,5.12)" d="M5,0L0,6L0,11.2L1.4,11.5L1.4,12.7L0,13.4L0,18.8L1.4,18.8L1.4,21.1L0,21.1L0,26.5L1.4,27.2L1.4,28.6L0,28.7L0,34L5,39.8L5,0z"/><path fill="#225a91" stroke-width="0.25" stroke="#225a91" id="shape21" transform="translate(5.03,0)" d="M0,5.1L10,0L10,9.5L0,12.7L0,5.1z"/><path fill="#225a91" stroke-width="0.25" stroke="#225a91" id="shape22" transform="translate(5.03,13.58)" d="M0,2.4L0,10L10,9.5L10,0L0,2.4z"/><path fill="#225a91" stroke-width="0.25" stroke="#225a91" id="shape23" transform="translate(5.03,26.74)" d="M10,.3L10,9.7L0,7.5L0,0L10,.3z"/><path fill="#225a91" stroke-width="0.25" stroke="#225a91" id="shape24" transform="translate(5.03,37.47)" d="M10,3.1L10,12.5L0,7.4L0,0L10,3.1z"/><path fill="#2e73b7" stroke-width="0.25" stroke="#2e73b7" id="shape25" transform="translate(15.01,0)" d="M0,0L14,0L14,9.5L0,9.5L0,0z"/><path fill="#2e73b7" stroke-width="0.25" stroke="#2e73b7" id="shape26" transform="translate(15.01,13.58)" d="M0,0L14,0L14,9.5L0,9.5L0,0z"/><path fill="#2e73b7" stroke-width="0.25" stroke="#2e73b7" id="shape27" transform="translate(15.01,27.09)" d="M0,0L14,0L14,9.4L0,9.4L0,0z"/><path fill="#2e73b7" stroke-width="0.25" stroke="#2e73b7" id="shape28" transform="translate(15.01,40.6)" d="M0,0L14,0L14,9.4L0,9.4L0,0z"/><path fill="#5294cf" stroke-width="0.25" stroke="#5294cf" id="shape29" transform="matrix(-1,0,0,1,39,0)" d="M0,5.1L10,0L10,9.5L0,12.7L0,5.1z"/><path fill="#5294cf" stroke-width="0.25" stroke="#5294cf" id="shape30" transform="matrix(-1,0,0,1,39,13.6)" d="M0,2.4L0,10L10,9.5L10,0L0,2.4z"/><path fill="#5294cf" stroke-width="0.25" stroke="#5294cf" id="shape31" transform="matrix(-1,0,0,1,39,26.7)" d="M10,.3L10,9.7L0,7.5L0,0L10,.3z"/><path fill="#5294cf" stroke-width="0.25" stroke="#5294cf" id="shape32" transform="matrix(-1,0,0,1,39,37.5)" d="M10,3.1L10,12.5L0,7.4L0,0L10,3.1z"/><path fill="#2e73b7" stroke-width="0.25" stroke="#2e73b7" id="shape33" transform="translate(38.97,5.08)" d="M0,0L5,6L5,11.2L0,7.6L0,0z"/><path fill="#2e73b7" stroke-width="0.25" stroke="#2e73b7" id="shape34" transform="translate(38.97,15.95)" d="M0,0L5,2.6L5,7.9L0,7.6L0,0z"/><path fill="#2e73b7" stroke-width="0.25" stroke="#2e73b7" id="shape35" transform="translate(38.97,26.18)" d="M0,.6L5,0L5,5.4L0,8L0,.6z"/><path fill="#2e73b7" stroke-width="0.25" stroke="#2e73b7" id="shape36" transform="translate(38.97,33.77)" d="M0,3.7L5,0L5,5.3L0,11.1L0,3.7z"/><text class="st1"><tspan x="-11" y="64.5">DynamoDB</tspan><tspan x="-39" y="80.5">turbo-carnival-players</tspan></text></g><g transform="translate(310.99,340)"><path fill="#58772d" stroke="#58772d" id="shape37" transform="translate(12.53,32.72)" d="M11.1,0L0,0L0,27.5L11.1,33.3L11.1,0z"/><path fill="#759c3e" stroke="#759c3e" id="shape38" transform="translate(23.66,32.72)" d="M0,0L8.7,0L8.7,29L0,33.3L0,0z"/><path fill="#759c3e" stroke="#759c3e" id="shape39" transform="translate(4.22,40.66)" d="M0,1.6L0,15.5L15.3,11.5L15.3,0L0,1.6z"/><path fill="#58772d" stroke="#58772d" id="shape40" transform="translate(-0,41.33)" d="M4.2,1L0,0L0,12.5L4.2,14.8L4.2,1z"/><path fill="#a6bb92" stroke="#a6bb92" id="shape41" transform="translate(0,39.88)" d="M0,1.5L14.7,0L19.6,.8L4.2,2.4L0,1.5z"/><path fill="#58772d" stroke="#83a45b" id="shape42" transform="translate(15.79,-0)" d="M7.9,32.7L0,32.7L0,4.1L7.9,0L7.9,32.7z"/><path fill="#759c3e" stroke="#83a45b" id="shape43" transform="translate(23.66,-0)" d="M0,32.7L11.9,32.7L11.9,5.6L0,0L0,32.7z"/><path fill="#58772d" stroke="#58772d" id="shape44" transform="translate(28.67,9.73)" d="M0,4.2L15.1,0L15.1,13.9L0,15.3L0,4.2z"/><path fill="#759c3e" stroke="#759c3e" id="shape45" transform="translate(43.78,9.73)" d="M0,0L4.2,2L4.2,14.5L0,13.9L0,0z"/><path fill="#4b6626" stroke="#4b6626" id="shape46" transform="translate(28.67,23.6)" d="M19.3,.7L4.7,2.1L0,1.4L15.1,0L19.3,.7z"/><text class="st1"><tspan x="-27" y="80.5">Elastic Beanstalk</tspan><tspan x="-14" y="96.5">turbo-carnival</tspan></text></g><g transform="translate(651,196)"><path fill="#953429" stroke-width="0.25" stroke="#953429" id="shape47" transform="translate(0.02,2.26)" d="M0,5.1C0,4,0,2.9,0,2.9C0,2.9,15.2,0,23,0C31.8,0,46,2.9,46,2.9C46,2.9,46,4.2,46,5.1C46,7.9,35.7,10.2,23,10.2C10.3,10.2,0,7.9,0,5.1z"/><path fill="#953429" stroke-width="0.25" stroke="#953429" id="shape48" transform="translate(0.02,9.5)" d="M0,2L0,0L22.7,20.3L46,0L46,2L38.3,33.2C38.3,33.2,35.6,36.5,23,36.5C10.4,36.5,7.7,33.2,7.7,33.2L0,2z"/><path fill="#e15343" stroke-width="0.25" stroke="#e15343" id="shape49" transform="translate(0.03,-0)" d="M0,5.1C0,2.3,10.3,0,23,0C35.7,0,45.9,2.3,45.9,5.1C45.9,7.9,35.7,10.2,23,10.2C10.3,10.2,0,7.9,0,5.1z"/><path fill="#e15343" stroke-width="0.25" stroke="#e15343" id="shape50" transform="translate(0.02,9.5)" d="M0,0C10,6.3,39.9,5.3,46,0L38.3,31.2C38.3,31.2,35.6,34.5,23,34.5C10.4,34.5,7.7,31.2,7.7,31.2L0,0z"/><text class="st1"><tspan x="15.5" y="60.5">S3</tspan><tspan x="-32.5" y="76.5">turbo-carnival (.csv)</tspan></text></g><g transform="translate(258,136)"><path fill="#000000" fill-opacity="0.08" d="M25.4,2L131.4,2C132,2,132.5,2.5,132.5,3.1L132.5,77.3C132.5,77.9,132,78.4,131.4,78.4L25.4,78.4C24.8,78.4,24.3,77.9,24.3,77.3L24.3,3.1C24.3,2.5,24.8,2,25.4,2zM153.7,103.9L132.6,80.5C131.9,79.6,130.8,78.4,130.1,78.4L26.5,78.4C25.9,78.4,24.7,79.4,23.8,80.5L2.3,103.9C2.2,104.1,2.1,104.4,2,104.8C2,104.8,2,104.8,2,104.8L2,106.2C2,107.2,2.8,108,3.8,108L152.2,108C153.2,108,154,107.2,154,106.2L154,104.6C153.9,104.4,153.8,104.1,153.7,103.9z"/><path fill="#ffffff" stroke="#000000" id="shape51" transform="translate(0,102.56)" d="M152,0L152,1.6C152,2.6,151.2,3.4,150.2,3.4L1.8,3.4C.8,3.4,0,2.6,0,1.6L0,0L152,0z"/><path fill="#ffffff" stroke="#000000" id="shape52" transform="translate(0,76.39)" d="M24.5,0L128.1,0C128.8,0,129.9,1.2,130.6,2.2L151.7,25.5C152.6,26.8,151.7,27.7,149.6,27.7L2.6,27.7C0,27.7,-0.4,26.7,.3,25.5L21.8,2.2C22.7,1.1,23.9,0,24.5,0z"/><path fill="#ffffff" stroke="#000000" id="shape53" transform="translate(22.34,0)" d="M1.1,0L107.1,0C107.6,0,108.1,.5,108.1,1.1L108.1,75.3C108.1,75.9,107.6,76.4,107.1,76.4L1.1,76.4C.5,76.4,0,75.9,0,75.3L0,1.1C0,.5,.5,0,1.1,0z"/><path fill="#ffffff" stroke="#000000" id="shape54" transform="translate(26.65,4.75)" d="M0,0L99.5,0L99.5,65.9L0,65.9L0,0z"/><path fill="#ffffff" stroke="#000000" id="shape55" transform="translate(12.96,79.89)" d="M12.9,0L114,0L126.9,15.5L0,15.5L12.9,0z"/><path fill="none" stroke="#000000" id="shape56" transform="translate(21.42,85.16)" d="M0,0L110.1,0"/><path fill="none" stroke="#000000" id="shape57" transform="translate(17.57,90.14)" d="M0,0L117.5,0"/><path fill="#ffffff" stroke="#000000" id="shape58" transform="translate(63.24,96.67)" d="M3.1,0L23.1,0L26.4,6L0,6L3.1,0z"/><g transform="translate(22.84,79.65)"><path fill="none" stroke="#000000" id="shape59" transform="translate(0,0.27)" d="M10.9,0L0,15.5"/><path fill="none" stroke="#000000" id="shape60" transform="translate(9.33,0.41)" d="M9.1,0L0,15.4"/><path fill="none" stroke="#000000" id="shape61" transform="translate(19.54,0.41)" d="M6.9,0L0,15.4"/><path fill="none" stroke="#000000" id="shape62" transform="translate(29.24,0.16)" d="M0,15.6L5.5,0"/><path fill="none" stroke="#000000" id="shape63" transform="translate(38.71,0.32)" d="M0,15.4L3.9,0"/><path fill="none" stroke="#000000" id="shape64" transform="translate(47.54,-0)" d="M0,15.7L2.2,0"/></g><g transform="matrix(-1,0,0,1,129.5,79.6)"><path fill="none" stroke="#000000" id="shape65" transform="translate(0,0.27)" d="M10.9,0L0,15.5"/><path fill="none" stroke="#000000" id="shape66" transform="translate(9.33,0.41)" d="M9.1,0L0,15.4"/><path fill="none" stroke="#000000" id="shape67" transform="translate(19.54,0.41)" d="M6.9,0L0,15.4"/><path fill="none" stroke="#000000" id="shape68" transform="translate(29.24,0.16)" d="M0,15.6L5.5,0"/><path fill="none" stroke="#000000" id="shape69" transform="translate(38.71,0.32)" d="M0,15.4L3.9,0"/><path fill="none" stroke="#000000" id="shape70" transform="translate(47.54,-0)" d="M0,15.7L2.2,0"/></g></g><g id="shape71" transform="translate(310.99,64)"><text class="st2"><tspan x="66" y="28">Viewing a Replay</tspan></text></g><path fill="none" stroke="#6d6d6d" id="shape72" transform="translate(334,242)" d="M0,0L1,98"/><path fill="none" stroke="#6d6d6d" id="shape73" transform="translate(358.99,373)" d="M0,0L292,-154"/><path fill="none" stroke="#6d6d6d" id="shape74" transform="translate(652,366.5)" d="M0,0L-293,6.5"/><path fill="none" stroke="#6d6d6d" id="shape75" transform="translate(652,514)" d="M0,0L-293,-141"/></g></svg>